<?xml version="1.0" encoding="UTF-8"?>
<svg version="1.1" xmlns="http://www.w3.org/2000/svg" width="1254" height="1254">
<path d="M0 0 C413.82 0 827.64 0 1254 0 C1254 413.82 1254 827.64 1254 1254 C840.18 1254 426.36 1254 0 1254 C0 840.18 0 426.36 0 0 Z " fill="#000000" transform="translate(0,0)"/>
<path d="M0 0 C2.62844857 1.15255384 5.17272258 2.41250013 7.71875 3.73828125 C11.17728437 5.50532369 14.54489174 7.16471482 18.21875 8.42578125 C20.89185417 9.37114736 23.0990064 10.49499306 25.46875 12.05078125 C29.13151221 14.42947165 32.93391425 16.428155 36.84375 18.36328125 C37.5126123 18.69448975 38.18147461 19.02569824 38.87060547 19.36694336 C41.23558196 20.53457423 43.60219907 21.6988449 45.96875 22.86328125 C61.15734147 30.35090126 76.21201904 37.99902435 91.015625 46.22412109 C93.68933616 47.70818993 96.36675026 49.18536186 99.04566956 50.66000366 C110.77879831 57.1202112 122.50235627 63.58030624 133.91297913 70.59977722 C135.33136171 71.47153396 136.75081144 72.34155597 138.17112732 73.2101593 C150.76277496 80.91246252 163.18132963 88.83624805 175.45361328 97.0378418 C178.09664482 98.80271426 180.7453508 100.55882801 183.39453125 102.31445312 C200.12777012 113.44724445 216.29053344 125.28981006 231.96875 137.86328125 C232.92007813 138.61996094 233.87140625 139.37664062 234.8515625 140.15625 C240.8064888 144.94903256 246.47639902 149.9845541 252.0703125 155.1875 C254.64517742 157.56456532 257.26557966 159.87267233 259.90625 162.17578125 C266.37401868 167.97590929 272.14815831 174.42658236 277.96875 180.86328125 C278.97421875 181.9615625 278.97421875 181.9615625 280 183.08203125 C309.96875 216.44346993 309.96875 216.44346993 309.96875 226.86328125 C310.62875 226.86328125 311.28875 226.86328125 311.96875 226.86328125 C324.06840383 249.2700476 324.42408874 272.34839968 324.34626496 297.20000517 C324.33731173 301.12564598 324.34589787 305.05125748 324.35212708 308.97689819 C324.36155135 316.63922716 324.35507263 324.30146107 324.34286413 331.9637829 C324.3291586 340.90245465 324.33088934 349.84110444 324.33299746 358.77978403 C324.33617771 374.73252189 324.32457279 390.68521489 324.30493164 406.63793945 C324.28590921 422.09238041 324.27885115 437.54676888 324.28442383 453.0012207 C324.29048879 469.87059249 324.29029312 486.73994128 324.278938 503.60931116 C324.27773081 505.40947346 324.27652482 507.20963575 324.27532005 509.00979805 C324.27441475 510.33806951 324.27441475 510.33806951 324.27349115 511.69317473 C324.26962213 517.91444497 324.27000158 524.13570661 324.2719059 530.35697746 C324.27403317 537.93962388 324.26876294 545.52222449 324.25429235 553.10485803 C324.24707625 556.96868043 324.24294751 560.83243629 324.24753571 564.69626427 C324.2523977 568.89282509 324.2416471 573.08920543 324.22944641 577.28575134 C324.23322573 578.49461327 324.23700506 579.7034752 324.24089891 580.9489693 C324.11127023 606.22732406 313.31135024 623.75454025 297.96875 642.86328125 C297.27910156 643.7346875 296.58945312 644.60609375 295.87890625 645.50390625 C293.92223038 647.96815547 291.94959092 650.41842444 289.96875 652.86328125 C289.27265625 653.72308594 288.5765625 654.58289063 287.859375 655.46875 C276.17302643 669.82804 264.04406524 683.81341736 251.828125 697.72265625 C250.28747604 699.49634455 248.75836963 701.27844503 247.234375 703.06640625 C242.48897219 708.63203993 237.73355 714.16650492 232.78125 719.55078125 C229.48004419 723.14295873 226.34152707 726.81378184 223.28125 730.61328125 C220.24300576 734.37771392 217.10548701 737.84535547 213.6328125 741.20703125 C211.2825742 743.54623556 209.14865951 746.05212495 206.984375 748.5625 C204.52394731 751.37101145 201.99900008 754.11790004 199.46875 756.86328125 C196.42970466 760.16341472 193.40718541 763.47277885 190.46875 766.86328125 C187.53030935 770.25378969 184.50758698 773.56295107 181.46875 776.86328125 C177.82333551 780.823231 174.22753704 784.81812278 170.69921875 788.8828125 C165.50287315 794.82987168 160.16352277 800.65186893 154.84375 806.48828125 C152.0800577 809.52284079 149.33877776 812.56934787 146.65625 815.67578125 C142.79171454 820.12779953 138.75252844 824.41516063 134.73168945 828.7253418 C131.35235662 832.35423736 128.04029567 836.02611479 124.796875 839.77734375 C122.26212166 842.6695623 119.68249625 845.51938817 117.09375 848.36328125 C116.60438965 848.90484863 116.1150293 849.44641602 115.61083984 850.00439453 C114.41781671 851.31019728 113.19586339 852.58946112 111.96875 853.86328125 C111.63875 853.86328125 111.30875 853.86328125 110.96875 853.86328125 C110.96875 752.88328125 110.96875 651.90328125 110.96875 547.86328125 C132.69767462 536.42700513 132.69767462 536.42700513 141.19140625 532.34765625 C143.13815168 531.40456693 145.08476168 530.46119801 147.03125 529.51757812 C148.50271484 528.80589478 148.50271484 528.80589478 150.00390625 528.07983398 C176.8117863 515.09570556 176.8117863 515.09570556 202.96875 500.86328125 C204.01998047 500.27708008 205.07121094 499.69087891 206.15429688 499.08691406 C221.71462493 490.87861618 221.71462493 490.87861618 230.58032227 476.54077148 C230.905677 475.1303428 231.20408715 473.71350716 231.47949219 472.29248047 C232.04573927 469.48102416 232.7700317 466.73225425 233.5078125 463.9609375 C236.78930794 451.38816918 239.31141695 438.74834345 240.96875 425.86328125 C241.06639648 425.10998535 241.16404297 424.35668945 241.26464844 423.58056641 C243.44740645 406.33530822 244.14038762 389.23682241 243.96875 371.86328125 C243.13730469 372.22421875 242.30585937 372.58515625 241.44921875 372.95703125 C240.36253906 373.42109375 239.27585937 373.88515625 238.15625 374.36328125 C237.07730469 374.82734375 235.99835937 375.29140625 234.88671875 375.76953125 C231.96875 376.86328125 231.96875 376.86328125 228.96875 376.86328125 C228.96875 377.52328125 228.96875 378.18328125 228.96875 378.86328125 C227.68291016 379.33507812 227.68291016 379.33507812 226.37109375 379.81640625 C219.12445168 382.43469145 219.12445168 382.43469145 212.28125 385.92578125 C209.61031727 387.48802492 207.26830017 388.58283005 204.40625 389.67578125 C200.17505736 391.30414933 196.18947233 393.23039379 192.15625 395.30078125 C186.72078674 398.08614375 181.21506257 400.37385131 175.48632812 402.48583984 C171.91479624 403.8844089 168.47432423 405.4450651 165.0078125 407.0859375 C163.67773257 407.71226619 162.34740309 408.33806516 161.0168457 408.96337891 C160.34344147 409.28018616 159.67003723 409.59699341 158.97622681 409.92340088 C153.26653683 412.59662008 147.52116817 415.19329375 141.78125 417.80078125 C140.73652023 418.27558426 140.73652023 418.27558426 139.67068481 418.75997925 C123.23584494 426.22510913 106.74732595 433.56822627 90.23565674 440.8616333 C87.92348214 441.88328316 85.61185612 442.90616678 83.30029297 443.92919922 C79.52930579 445.59749173 75.75640844 447.26138904 71.98196411 448.92184448 C70.56564972 449.54543518 69.14985008 450.1701964 67.73458862 450.7961731 C65.79074946 451.65544064 63.84491343 452.51000705 61.8984375 453.36328125 C60.79741699 453.84796875 59.69639648 454.33265625 58.56201172 454.83203125 C55.96875 455.86328125 55.96875 455.86328125 53.96875 455.86328125 C59.01634166 533.54952941 59.01634166 533.54952941 68.15625 610.84155273 C68.44966483 612.84561916 68.71160924 614.85423841 68.96875 616.86328125 C69.113125 617.71921875 69.2575 618.57515625 69.40625 619.45703125 C68.67219033 623.49435942 65.87643862 625.9726504 63.15625 628.92578125 C62.56312012 629.58771484 61.96999023 630.24964844 61.35888672 630.93164062 C60.14479 632.28258734 58.92505799 633.62849114 57.69970703 634.96923828 C56.18170469 636.63026256 54.67928689 638.30329708 53.18359375 639.984375 C43.40929501 650.84962112 33.16630172 661.45733781 21.96875 670.86328125 C20.87622045 671.81742833 19.78522705 672.77333567 18.6953125 673.73046875 C12.38040053 679.25143792 6.12839099 684.44899516 -1.03125 688.86328125 C-18.57415818 674.71340644 -18.57415818 674.71340644 -25.03125 668.86328125 C-25.88203125 668.10402344 -26.7328125 667.34476563 -27.609375 666.5625 C-33.67696722 661.08706585 -39.55350819 655.44386653 -45.34375 649.67578125 C-46.00117187 649.02295166 -46.65859375 648.37012207 -47.3359375 647.69750977 C-51.18542512 643.83587098 -54.83876157 639.85987496 -58.39526367 635.72729492 C-59.86286468 634.05513649 -61.37490145 632.46159729 -62.9375 630.87890625 C-69.74585223 623.61939814 -69.74585223 623.61939814 -70.515625 618.8828125 C-70.26964776 615.77939964 -69.73128913 612.8954732 -69.03125 609.86328125 C-68.72581379 607.99047502 -68.43488415 606.11526219 -68.15625 604.23828125 C-67.9809375 603.13355469 -67.805625 602.02882813 -67.625 600.890625 C-64.98256208 583.46035462 -63.51271763 565.84972186 -61.90625 548.30078125 C-61.81998352 547.3658786 -61.73371704 546.43097595 -61.64483643 545.46774292 C-60.72974992 535.50915943 -59.90329688 525.55954713 -59.35700989 515.57350159 C-59.05745576 510.11398447 -58.61077489 504.68073164 -58.09375 499.23828125 C-56.77654837 484.80069362 -55.91697518 470.33249921 -55.03125 455.86328125 C-55.74144287 455.74734619 -56.45163574 455.63141113 -57.18334961 455.51196289 C-60.22412959 454.81934803 -62.76093645 453.77782015 -65.59765625 452.484375 C-66.70367188 451.98389648 -67.8096875 451.48341797 -68.94921875 450.96777344 C-70.16406492 450.41211466 -71.37890858 449.85645042 -72.59375 449.30078125 C-74.547231 448.41432664 -76.50159 447.52982816 -78.45602417 446.64547729 C-79.83675317 446.02065653 -81.21722053 445.39525733 -82.59744263 444.76931763 C-87.6046466 442.50053054 -92.62440885 440.26149613 -97.65234375 438.0390625 C-98.37675659 437.71877075 -99.10116943 437.398479 -99.84753418 437.06848145 C-101.32760823 436.41414581 -102.80769048 435.75982872 -104.28778076 435.10552979 C-118.531085 428.805957 -132.70236291 422.36217488 -146.84039307 415.83001709 C-156.62797485 411.31013812 -166.44140473 406.88961257 -176.37451172 402.69628906 C-185.80135518 398.71400518 -195.04696541 394.40575041 -204.15625 389.73828125 C-209.34699281 387.1042778 -214.64815882 385.01257435 -220.12109375 383.0390625 C-222.9755012 381.88580526 -225.41301725 380.46982539 -228.03125 378.86328125 C-229.26517901 378.34412819 -230.51536933 377.86126584 -231.78125 377.42578125 C-234.85285005 376.33496151 -237.82381212 375.10130916 -240.796875 373.765625 C-241.59383789 373.40847412 -242.39080078 373.05132324 -243.21191406 372.68334961 C-244.11248535 372.27741577 -244.11248535 372.27741577 -245.03125 371.86328125 C-245.3412064 386.2728097 -244.47787663 400.30001937 -242.84375 414.61328125 C-242.67576904 416.12249649 -242.67576904 416.12249649 -242.50439453 417.66220093 C-240.83279657 432.59351263 -238.884795 447.31303161 -235.03125 461.86328125 C-234.70592285 463.10392334 -234.70592285 463.10392334 -234.37402344 464.36962891 C-232.4591394 471.53704833 -230.40223434 478.21873986 -227.03125 484.86328125 C-227.03125 485.52328125 -227.03125 486.18328125 -227.03125 486.86328125 C-226.36738281 487.08886719 -225.70351563 487.31445312 -225.01953125 487.546875 C-221.11770078 489.26572058 -217.75513509 491.56026448 -214.21875 493.92578125 C-206.63602797 498.91182659 -198.90767326 503.49180845 -190.93701172 507.82666016 C-189.12156858 508.81415331 -187.3125617 509.81264648 -185.50390625 510.8125 C-178.47873974 514.66052443 -171.33130542 518.18158954 -164.09375 521.61328125 C-146.29294575 530.13041247 -128.68140935 539.03820158 -111.03125 547.86328125 C-111.03125 649.17328125 -111.03125 750.48328125 -111.03125 854.86328125 C-111.69125 854.86328125 -112.35125 854.86328125 -113.03125 854.86328125 C-114.29956055 853.37036133 -114.29956055 853.37036133 -115.73046875 851.3203125 C-118.81100758 847.07441676 -122.21231661 843.32646674 -125.84375 839.55078125 C-130.85293715 834.27337424 -135.54900827 828.89352872 -140.08984375 823.20703125 C-142.31016815 820.52655914 -144.71500225 818.1492976 -147.21875 815.73828125 C-149.48173573 813.39726152 -151.49073323 810.90013994 -153.53125 808.36328125 C-156.63395432 804.50856555 -159.82377176 800.95399476 -163.37109375 797.51171875 C-167.43228984 793.47918993 -171.04764813 789.01964787 -174.75390625 784.6640625 C-175.76269547 783.48019143 -176.77182066 782.29660657 -177.78125 781.11328125 C-178.29558594 780.51016113 -178.80992187 779.90704102 -179.33984375 779.28564453 C-182.72129618 775.33956525 -186.18178128 771.48266173 -189.71875 767.67578125 C-193.10649373 764.02914749 -196.35022796 760.30710724 -199.46875 756.42578125 C-203.83149187 751.00564234 -208.51301696 745.93758853 -213.25390625 740.8515625 C-218.90142375 734.79269892 -224.22457728 728.46337247 -229.56274414 722.1328125 C-233.1838541 717.84547704 -236.84908539 713.59823348 -240.53125 709.36328125 C-245.0380345 704.17859048 -249.50629524 698.96453088 -253.93310547 693.71142578 C-257.31629797 689.69903075 -260.73244466 685.71604087 -264.15625 681.73828125 C-268.41521317 676.78585675 -272.58033212 671.76847423 -276.6953125 666.6953125 C-279.38322567 663.4365549 -282.14191442 660.24462635 -284.90625 657.05078125 C-289.85892683 651.31366937 -294.58687332 645.43405321 -299.23046875 639.4453125 C-301.17969748 636.93579319 -303.16420806 634.45982091 -305.17578125 632 C-319.67671509 614.2474764 -325.19440876 600.56970071 -325.16496277 577.58200073 C-325.1683611 575.61988748 -325.1683611 575.61988748 -325.17182809 573.61813557 C-325.17790855 570.01170729 -325.17781695 566.40530232 -325.17663372 562.79887009 C-325.17642875 558.89958596 -325.18195761 555.00030913 -325.18669128 551.10102844 C-325.19497804 543.47024632 -325.19774524 535.83947193 -325.19830366 528.20868568 C-325.19877981 522.00148967 -325.2008395 515.79429619 -325.20400429 509.58710098 C-325.21280589 491.96388517 -325.2174245 474.34067543 -325.21667381 456.7174574 C-325.21663386 455.76848943 -325.2165939 454.81952145 -325.21655273 453.84179688 C-325.21651185 452.89166152 -325.21647097 451.94152616 -325.21642885 450.96259882 C-325.21602264 435.57400033 -325.22558716 420.18542634 -325.2396911 404.79683493 C-325.25407989 388.97174569 -325.26095989 373.14666837 -325.26009732 357.32157242 C-325.25976619 348.44677134 -325.26247635 339.57199594 -325.27327538 330.69720078 C-325.28241342 323.13934524 -325.28452867 315.58152702 -325.27776595 308.02366833 C-325.2745172 304.17358395 -325.27438398 300.32357102 -325.2831192 296.47349358 C-325.37038731 255.32019918 -315.99265013 227.07992069 -290.03125 194.86328125 C-289.19646223 193.81392327 -288.36181436 192.76445396 -287.52734375 191.71484375 C-279.56651131 181.8295666 -270.95986854 172.62562457 -261.96875 163.67578125 C-261.12248047 162.82564453 -260.27621094 161.97550781 -259.40429688 161.09960938 C-254.44297054 156.14593351 -249.3838342 151.39091765 -244.03125 146.86328125 C-243.09430298 146.06627808 -243.09430298 146.06627808 -242.13842773 145.25317383 C-226.76859621 132.2679424 -210.74032529 120.07584321 -194.03125 108.86328125 C-193.18079102 108.2899707 -192.33033203 107.71666016 -191.45410156 107.12597656 C-136.68498943 70.23611404 -78.78004236 37.7974309 -19.55859375 8.62109375 C-17.05261258 7.37226592 -14.57178361 6.1015478 -12.09765625 4.79296875 C-11.13533081 4.29108032 -11.13533081 4.29108032 -10.15356445 3.77905273 C-8.40555889 2.86573179 -6.66347461 1.94110293 -4.921875 1.015625 C-2.03125 -0.13671875 -2.03125 -0.13671875 0 0 Z " fill="#C30B11" transform="translate(628.03125,147.13671875)"/>
<path d="M0 0 C4.3429862 0.65802821 8.07277596 2.03638798 12 4 C12.33 4.99 12.66 5.98 13 7 C11.58208592 6.54554036 10.16571954 6.08625056 8.75 5.625 C7.96109375 5.36976563 7.1721875 5.11453125 6.359375 4.8515625 C4.13372042 4.04826333 2.09068328 3.10288338 0 2 C0 1.34 0 0.68 0 0 Z " fill="#B20A10" transform="translate(481,561)"/>
<path d="M0 0 C8.57142857 0.85714286 8.57142857 0.85714286 12 3 C12 3.66 12 4.32 12 5 C7.61110675 4.33501617 4.0188515 2.81242323 0 1 C0 0.67 0 0.34 0 0 Z " fill="#A9090E" transform="translate(445,546)"/>
<path d="M0 0 C1.4835001 0.42257276 2.96176424 0.86356322 4.4375 1.3125 C5.67306641 1.67794922 5.67306641 1.67794922 6.93359375 2.05078125 C7.95646484 2.52064453 7.95646484 2.52064453 9 3 C9.33 3.99 9.66 4.98 10 6 C6.27566618 4.7874262 2.62197194 3.49140021 -1 2 C-0.67 1.34 -0.34 0.68 0 0 Z " fill="#A9080E" transform="translate(426,536)"/>
</svg>
